<?xml version="1.0" encoding="UTF-8" standalone="no"?><!-- Generator: Gravit.io --><svg xmlns="http://www.w3.org/2000/svg" xmlns:xlink="http://www.w3.org/1999/xlink" style="isolation:isolate" viewBox="0 0 841.89 595.28" width="841.89pt" height="595.28pt"><defs><clipPath id="_clipPath_roTTcd2YUGthhj4oQ1P6FAbJG584osFj"><rect x="0" y="0" width="841.89" height="595.28"/></clipPath></defs><g clip-path="url(#_clipPath_roTTcd2YUGthhj4oQ1P6FAbJG584osFj)"><clipPath id="_clipPath_4TcJ2JKBS5IvkoIDTs5xwb3rZqALsL00"><rect x="0" y="0" width="841.89" height="595.28" transform="matrix(1,0,0,1,0,0)" fill="rgb(255,255,255)"/></clipPath><g clip-path="url(#_clipPath_4TcJ2JKBS5IvkoIDTs5xwb3rZqALsL00)"><clipPath id="_clipPath_DXcwpgFL8Hx1WzTSjajbKY3HUpzkwypI"><path d=" M 0 0 L 841.89 0 L 841.89 595.28 L 0 595.28 L 0 0 Z " fill="rgb(255,255,255)"/></clipPath><g clip-path="url(#_clipPath_DXcwpgFL8Hx1WzTSjajbKY3HUpzkwypI)"><path d=" M 281.153 242.99 L 281.153 445.906 L 531.763 445.906 L 531.763 300.363 C 530.82 290.475 528.875 281.453 526.068 273.245 C 484.046 319.763 344.987 328.17 281.153 242.99 Z " fill="rgb(37,138,108)"/><path d=" M 544.773 237.803 C 542.857 233.631 540.416 229.472 537.367 225.376 C 528.765 213.818 515.307 202.763 495.024 193.344 C 414.342 159.205 354.887 195.078 331.54 212.521 C 327.177 215.781 324.072 218.399 322.329 219.793 C 325.263 217.646 328.71 215.618 332.583 213.74 C 374.143 193.574 465.156 190.607 508.524 242.008 C 514.041 248.546 518.781 255.966 522.556 264.339 C 523.842 267.195 525.012 270.164 526.067 273.244 C 528.875 281.452 530.819 290.475 531.762 300.363 C 532.266 305.644 532.493 311.165 532.398 316.952 C 531.999 320.935 563.558 278.737 544.773 237.803 Z " fill="rgb(216,217,218)"/><path d=" M 303.565 458.482 C 302.951 458.201 302.258 457.929 301.486 457.668 C 300.714 457.406 299.854 457.265 298.907 457.248 C 298.1 457.248 297.442 457.433 296.933 457.802 C 296.38 458.173 296.105 458.775 296.105 459.609 C 296.105 460.025 296.241 460.396 296.511 460.722 C 296.757 461.074 297.086 461.41 297.499 461.726 C 298.383 462.324 299.4 462.925 300.549 463.531 C 301.697 464.146 302.71 464.898 303.586 465.785 C 304.48 466.689 304.941 467.855 304.967 469.285 C 304.941 471.068 304.308 472.421 303.074 473.343 C 301.837 474.277 300.185 474.742 298.116 474.742 C 296.915 474.714 295.841 474.593 294.894 474.375 C 293.939 474.15 293.298 474 292.974 473.927 L 292.974 470.562 C 293.554 470.933 294.283 471.324 295.161 471.73 C 296.065 472.183 297.091 472.418 298.243 472.435 C 299.462 472.418 300.323 472.119 300.824 471.541 C 301.271 471.005 301.495 470.414 301.495 469.761 C 301.476 468.722 301.021 467.871 300.126 467.211 C 299.248 466.541 298.234 465.898 297.084 465.283 C 295.924 464.677 294.907 463.959 294.029 463.125 C 293.116 462.302 292.65 461.224 292.632 459.894 C 292.65 458.175 293.277 456.914 294.513 456.109 C 295.715 455.33 297.215 454.941 299.013 454.941 C 300.075 454.941 301.017 455.009 301.841 455.144 C 302.648 455.271 303.223 455.38 303.565 455.47 L 303.565 458.482 Z " fill="rgb(133,135,139)"/><path d=" M 310.396 467.828 C 310.396 468.433 310.431 469.015 310.501 469.576 C 310.554 470.127 310.66 470.633 310.819 471.094 C 311.003 471.537 311.268 471.89 311.612 472.152 C 311.938 472.432 312.361 472.572 312.88 472.572 C 313.417 472.572 313.859 472.432 314.203 472.152 C 314.528 471.89 314.775 471.537 314.942 471.094 C 315.119 470.633 315.242 470.127 315.312 469.576 C 315.348 469.015 315.366 468.433 315.366 467.828 C 315.383 466.527 315.243 465.414 314.942 464.492 C 314.775 464.051 314.528 463.697 314.203 463.435 C 313.859 463.191 313.417 463.07 312.88 463.07 C 312.361 463.07 311.938 463.191 311.612 463.435 C 311.268 463.697 311.003 464.051 310.819 464.492 C 310.518 465.414 310.377 466.527 310.396 467.828 Z  M 312.88 474.742 C 309.125 474.66 307.24 472.353 307.222 467.82 C 307.24 463.279 309.125 460.973 312.88 460.898 C 316.635 460.973 318.521 463.279 318.539 467.82 C 318.521 472.353 316.635 474.66 312.88 474.742 Z " fill="rgb(133,135,139)"/><path d=" M 331.681 474.119 C 330.549 474.508 329.299 474.715 327.932 474.742 C 325.976 474.742 324.349 474.144 323.051 472.951 C 321.744 471.783 321.082 469.879 321.066 467.236 C 321.046 465.455 321.511 463.963 322.458 462.758 C 323.398 461.555 324.889 460.935 326.932 460.898 C 327.905 460.898 328.716 461.025 329.366 461.279 C 329.97 461.543 330.461 461.906 330.838 462.367 C 331.04 462.594 331.202 462.826 331.325 463.06 C 331.448 463.342 331.548 463.633 331.626 463.931 C 331.75 464.521 331.812 465.123 331.812 465.74 L 328.638 465.74 C 328.638 465.07 328.524 464.461 328.296 463.91 C 328.024 463.367 327.493 463.088 326.702 463.07 C 325.894 463.088 325.284 463.431 324.871 464.099 C 324.45 464.787 324.239 465.65 324.239 466.689 C 324.239 467.349 324.339 468.021 324.541 468.709 C 324.743 469.396 325.04 470.033 325.435 470.621 C 325.865 471.18 326.408 471.637 327.066 471.988 C 327.732 472.377 328.551 472.572 329.524 472.572 C 330.366 472.572 331.084 472.459 331.681 472.232 L 331.681 474.119 Z " fill="rgb(133,135,139)"/><path d=" M 334.378 461.197 L 337.362 461.197 L 337.362 474.429 L 334.378 474.429 L 334.378 461.197 Z  M 334.378 455.254 L 337.362 455.254 L 337.362 458.293 L 334.378 458.293 L 334.378 455.254 Z " fill="rgb(133,135,139)"/><path d=" M 348.196 465.146 C 348.215 464.683 348.082 464.187 347.8 463.658 C 347.633 463.421 347.404 463.226 347.113 463.07 C 346.814 462.925 346.418 462.851 345.925 462.851 C 345.056 462.871 344.427 463.152 344.039 463.699 C 343.668 464.218 343.463 464.701 343.427 465.146 L 348.196 465.146 Z  M 350.702 474.212 C 349.658 474.566 348.461 474.742 347.109 474.742 C 342.839 474.679 340.685 472.136 340.65 467.115 C 340.633 465.232 341.062 463.726 341.939 462.595 C 342.825 461.482 344.228 460.917 346.149 460.898 C 349.394 460.99 351.016 462.773 351.016 466.248 L 351.016 466.992 L 343.417 466.992 C 343.417 467.455 343.505 467.996 343.679 468.611 C 343.777 468.912 343.887 469.22 344.01 469.537 C 344.151 469.828 344.314 470.13 344.499 470.449 C 344.878 471.048 345.37 471.542 345.976 471.931 C 346.611 472.359 347.368 472.572 348.249 472.572 C 349.272 472.535 350.09 472.367 350.702 472.068 L 350.702 474.212 Z " fill="rgb(133,135,139)"/><path d=" M 356.69 467.828 C 356.69 468.326 356.724 468.842 356.794 469.377 C 356.847 469.922 356.944 470.416 357.086 470.859 C 357.252 471.303 357.476 471.656 357.757 471.92 C 358.065 472.209 358.443 472.355 358.891 472.355 C 359.33 472.355 359.69 472.209 359.971 471.92 C 360.261 471.656 360.499 471.303 360.683 470.859 C 361.008 469.943 361.17 468.933 361.17 467.828 C 361.17 466.558 361.008 465.488 360.683 464.619 C 360.34 463.748 359.743 463.305 358.891 463.287 C 358.407 463.287 358.029 463.414 357.757 463.668 C 357.476 463.93 357.252 464.275 357.086 464.701 C 356.944 465.127 356.847 465.611 356.794 466.154 C 356.724 466.689 356.69 467.248 356.69 467.828 Z  M 361.17 472.611 L 361.105 472.611 C 360.964 473.015 360.605 473.457 360.025 473.933 C 359.439 474.428 358.733 474.697 357.909 474.742 C 356.234 474.697 355.077 474 354.437 472.652 C 353.805 471.312 353.499 469.703 353.516 467.82 C 353.516 465.83 353.876 464.187 354.595 462.894 C 355.279 461.582 356.383 460.918 357.909 460.898 C 358.391 460.898 358.821 460.953 359.198 461.062 C 359.557 461.207 359.856 461.383 360.091 461.592 C 360.591 462.016 360.929 462.414 361.105 462.785 L 361.17 462.785 L 361.17 455.254 L 364.154 455.254 L 364.154 474.43 L 361.17 474.43 L 361.17 472.611 Z " fill="rgb(133,135,139)"/><path d=" M 370.438 470.982 C 370.438 472.043 370.97 472.572 372.035 472.572 C 372.519 472.572 372.942 472.441 373.302 472.177 C 373.628 471.943 373.901 471.627 374.122 471.228 C 374.333 470.82 374.496 470.394 374.609 469.951 C 374.679 469.49 374.715 469.037 374.715 468.593 C 373.686 468.593 372.74 468.759 371.876 469.095 C 371.462 469.277 371.128 469.525 370.874 469.841 C 370.583 470.16 370.438 470.539 370.438 470.982 Z  M 374.715 472.898 L 374.664 472.898 C 374.478 473.322 374.135 473.73 373.634 474.119 C 373.361 474.291 373.037 474.429 372.66 474.539 C 372.282 474.646 371.834 474.714 371.315 474.742 C 370.217 474.714 369.317 474.398 368.613 473.795 C 367.892 473.162 367.534 472.322 367.534 471.275 C 367.55 470.181 367.849 469.32 368.429 468.687 C 368.983 468.082 369.664 467.648 370.472 467.386 C 371.289 467.125 372.084 466.957 372.857 466.884 C 373.648 466.812 374.267 466.787 374.715 466.804 L 374.715 465.5 C 374.715 464.812 374.606 464.238 374.386 463.775 C 374.141 463.322 373.65 463.087 372.914 463.07 C 372.124 463.087 371.593 463.314 371.322 463.748 C 371.049 464.173 370.921 464.627 370.94 465.107 L 368.038 465.107 C 368.038 462.375 369.664 460.972 372.914 460.898 C 376.031 460.918 377.58 462.289 377.563 465.011 L 377.563 474.429 L 374.715 474.429 L 374.715 472.898 Z " fill="rgb(133,135,139)"/><path d=" M 383.956 467.828 C 383.956 468.326 383.99 468.842 384.06 469.377 C 384.113 469.922 384.21 470.416 384.352 470.859 C 384.518 471.303 384.742 471.656 385.023 471.92 C 385.33 472.209 385.709 472.355 386.157 472.355 C 386.596 472.355 386.956 472.209 387.237 471.92 C 387.527 471.656 387.764 471.303 387.949 470.859 C 388.274 469.943 388.436 468.933 388.436 467.828 C 388.436 466.558 388.274 465.488 387.949 464.619 C 387.606 463.748 387.009 463.305 386.157 463.287 C 385.673 463.287 385.295 463.414 385.023 463.668 C 384.742 463.93 384.518 464.275 384.352 464.701 C 384.21 465.127 384.113 465.611 384.06 466.154 C 383.99 466.689 383.956 467.248 383.956 467.828 Z  M 388.436 472.611 L 388.371 472.611 C 388.23 473.015 387.871 473.457 387.292 473.933 C 386.705 474.428 385.999 474.697 385.175 474.742 C 383.5 474.697 382.343 474 381.703 472.652 C 381.071 471.312 380.764 469.703 380.782 467.82 C 380.782 465.83 381.142 464.187 381.861 462.894 C 382.545 461.582 383.649 460.918 385.175 460.898 C 385.657 460.898 386.087 460.953 386.463 461.062 C 386.823 461.207 387.122 461.383 387.358 461.592 C 387.858 462.016 388.195 462.414 388.371 462.785 L 388.436 462.785 L 388.436 455.254 L 391.42 455.254 L 391.42 474.43 L 388.436 474.43 L 388.436 472.611 Z " fill="rgb(133,135,139)"/><path d=" M 402.225 465.146 C 402.244 464.683 402.111 464.187 401.829 463.658 C 401.662 463.421 401.433 463.226 401.142 463.07 C 400.843 462.925 400.447 462.851 399.954 462.851 C 399.085 462.871 398.456 463.152 398.068 463.699 C 397.697 464.218 397.493 464.701 397.456 465.146 L 402.225 465.146 Z  M 404.73 474.212 C 403.687 474.566 402.49 474.742 401.139 474.742 C 396.868 474.679 394.714 472.136 394.679 467.115 C 394.662 465.232 395.091 463.726 395.968 462.595 C 396.854 461.482 398.257 460.917 400.178 460.898 C 403.423 460.99 405.045 462.773 405.045 466.248 L 405.045 466.992 L 397.445 466.992 C 397.445 467.455 397.534 467.996 397.709 468.611 C 397.806 468.912 397.916 469.22 398.039 469.537 C 398.179 469.828 398.343 470.13 398.528 470.449 C 398.907 471.048 399.399 471.542 400.006 471.931 C 400.64 472.359 401.396 472.572 402.277 472.572 C 403.301 472.535 404.119 472.367 404.73 472.068 L 404.73 474.212 Z " fill="rgb(133,135,139)"/><path d=" M 419.785 472.125 L 421.055 472.125 C 421.584 472.125 422.108 472.078 422.628 471.988 C 423.13 471.916 423.593 471.768 424.016 471.541 C 424.431 471.299 424.761 470.955 425.008 470.512 C 425.245 470.088 425.366 469.531 425.366 468.846 C 425.347 467.59 424.968 466.705 424.228 466.189 C 423.452 465.684 422.394 465.432 421.055 465.432 L 419.785 465.432 L 419.785 472.125 Z  M 419.785 463.127 L 421.047 463.127 C 421.539 463.127 422 463.086 422.429 463.004 C 422.841 462.932 423.192 462.805 423.482 462.623 C 423.779 462.434 424.011 462.145 424.178 461.754 C 424.336 461.402 424.415 460.922 424.415 460.316 C 424.415 459.701 424.345 459.207 424.204 458.836 C 424.038 458.482 423.806 458.215 423.507 458.035 C 423.218 457.826 422.868 457.686 422.455 457.613 C 422.236 457.578 422.021 457.559 421.811 457.559 L 421.047 457.559 L 419.785 457.559 L 419.785 463.127 Z  M 416.639 455.254 L 422.35 455.254 C 422.867 455.254 423.431 455.299 424.044 455.389 C 424.648 455.48 425.221 455.691 425.763 456.027 C 426.298 456.326 426.745 456.783 427.104 457.398 C 427.445 458.004 427.616 458.791 427.616 459.76 C 427.616 460.52 427.515 461.156 427.314 461.672 C 427.104 462.189 426.829 462.613 426.488 462.949 C 425.788 463.582 425.132 463.988 424.52 464.17 L 424.52 464.225 C 424.944 464.27 425.389 464.373 425.857 464.537 C 426.324 464.717 426.755 464.994 427.153 465.365 C 427.567 465.717 427.911 466.201 428.185 466.816 C 428.441 467.404 428.568 468.174 428.568 469.123 C 428.55 470.291 428.361 471.219 428.002 471.906 C 427.624 472.629 427.12 473.164 426.488 473.508 C 425.873 473.859 425.206 474.104 424.487 474.24 C 423.748 474.367 423.042 474.43 422.367 474.43 L 416.639 474.43 L 416.639 455.254 Z " fill="rgb(133,135,139)"/><path d=" M 431.961 461.197 L 434.943 461.197 L 434.943 463.64 L 435.006 463.64 C 435.181 463.314 435.387 462.984 435.624 462.65 C 435.834 462.334 436.084 462.043 436.373 461.781 C 436.97 461.211 437.895 460.918 439.148 460.898 L 439.148 464.129 C 436.282 464.092 434.881 465.592 434.943 468.629 L 434.943 474.429 L 431.961 474.429 L 431.961 461.197 Z " fill="rgb(133,135,139)"/><path d=" M 444.037 470.982 C 444.037 472.043 444.569 472.572 445.634 472.572 C 446.118 472.572 446.541 472.441 446.901 472.177 C 447.227 471.943 447.5 471.627 447.721 471.228 C 447.932 470.82 448.095 470.394 448.209 469.951 C 448.278 469.49 448.314 469.037 448.314 468.593 C 447.285 468.593 446.339 468.759 445.475 469.095 C 445.062 469.277 444.727 469.525 444.473 469.841 C 444.182 470.16 444.037 470.539 444.037 470.982 Z  M 448.314 472.898 L 448.262 472.898 C 448.077 473.322 447.734 473.73 447.233 474.119 C 446.961 474.291 446.636 474.429 446.259 474.539 C 445.881 474.646 445.433 474.714 444.914 474.742 C 443.816 474.714 442.916 474.398 442.212 473.795 C 441.492 473.162 441.133 472.322 441.133 471.275 C 441.149 470.181 441.448 469.32 442.028 468.687 C 442.582 468.082 443.263 467.648 444.071 467.386 C 444.888 467.125 445.683 466.957 446.456 466.884 C 447.247 466.812 447.866 466.787 448.314 466.804 L 448.314 465.5 C 448.314 464.812 448.205 464.238 447.985 463.775 C 447.74 463.322 447.249 463.087 446.511 463.07 C 445.723 463.087 445.192 463.314 444.921 463.748 C 444.648 464.173 444.52 464.627 444.539 465.107 L 441.637 465.107 C 441.637 462.375 443.262 460.972 446.511 460.898 C 449.63 460.918 451.179 462.289 451.163 465.011 L 451.163 474.429 L 448.314 474.429 L 448.314 472.898 Z " fill="rgb(133,135,139)"/><path d=" M 461.785 464.007 C 461.608 463.898 461.267 463.722 460.759 463.476 C 460.241 463.259 459.632 463.142 458.929 463.122 C 458.446 463.122 458.009 463.222 457.614 463.421 C 457.158 463.648 456.929 463.956 456.929 464.345 C 456.929 464.527 457.022 464.72 457.206 464.929 C 457.364 465.146 457.579 465.349 457.851 465.538 C 458.394 465.909 459.031 466.325 459.759 466.788 C 460.495 467.232 461.145 467.769 461.707 468.403 C 462.259 469.027 462.545 469.814 462.562 470.765 C 462.545 472.112 462.097 473.105 461.22 473.737 C 460.343 474.407 459.175 474.741 457.72 474.741 C 456.86 474.714 456.158 474.648 455.614 474.538 C 455.061 474.413 454.632 474.304 454.325 474.214 L 454.325 471.552 C 454.535 471.624 454.776 471.706 455.049 471.796 C 455.303 471.915 455.561 472.009 455.824 472.083 C 456.402 472.263 456.99 472.355 457.587 472.355 C 458.016 472.355 458.481 472.282 458.979 472.136 C 459.498 471.991 459.769 471.665 459.796 471.159 C 459.769 470.769 459.489 470.37 458.954 469.962 C 458.42 469.573 457.784 469.148 457.048 468.685 C 456.723 468.441 456.389 468.183 456.048 467.911 C 455.723 467.63 455.426 467.331 455.153 467.013 C 454.584 466.388 454.29 465.646 454.272 464.784 C 454.272 463.527 454.692 462.562 455.535 461.89 C 456.36 461.23 457.473 460.898 458.877 460.898 C 459.526 460.917 460.1 460.972 460.6 461.062 C 461.083 461.189 461.477 461.3 461.785 461.4 L 461.785 464.007 Z " fill="rgb(133,135,139)"/><path d=" M 465.591 461.197 L 468.574 461.197 L 468.574 474.429 L 465.591 474.429 L 465.591 461.197 Z  M 465.591 455.254 L 468.574 455.254 L 468.574 458.293 L 465.591 458.293 L 465.591 455.254 Z " fill="rgb(133,135,139)"/><path d=" M 472.784 455.254 L 475.767 455.254 L 475.767 474.43 L 472.784 474.43 L 472.784 455.254 Z " fill="rgb(133,135,139)"/><path d=" M 486.601 465.146 C 486.621 464.683 486.487 464.187 486.205 463.658 C 486.038 463.421 485.808 463.226 485.518 463.07 C 485.219 462.925 484.823 462.851 484.33 462.851 C 483.461 462.871 482.832 463.152 482.444 463.699 C 482.073 464.218 481.869 464.701 481.832 465.146 L 486.601 465.146 Z  M 489.107 474.212 C 488.063 474.566 486.866 474.742 485.515 474.742 C 481.244 474.679 479.09 472.136 479.055 467.115 C 479.038 465.232 479.467 463.726 480.343 462.595 C 481.23 461.482 482.633 460.917 484.554 460.898 C 487.799 460.99 489.421 462.773 489.421 466.248 L 489.421 466.992 L 481.822 466.992 C 481.822 467.455 481.91 467.996 482.085 468.611 C 482.182 468.912 482.292 469.22 482.415 469.537 C 482.556 469.828 482.719 470.13 482.904 470.449 C 483.283 471.048 483.775 471.542 484.382 471.931 C 485.016 472.359 485.773 472.572 486.654 472.572 C 487.677 472.535 488.496 472.367 489.107 472.068 L 489.107 474.212 Z " fill="rgb(133,135,139)"/><path d=" M 492.843 461.197 L 495.827 461.197 L 495.827 474.429 L 492.843 474.429 L 492.843 461.197 Z  M 492.843 455.254 L 495.827 455.254 L 495.827 458.293 L 492.843 458.293 L 492.843 455.254 Z " fill="rgb(133,135,139)"/><path d=" M 499.848 461.197 L 502.829 461.197 L 502.829 463.64 L 502.892 463.64 C 503.068 463.314 503.274 462.984 503.511 462.65 C 503.721 462.334 503.971 462.043 504.259 461.781 C 504.857 461.211 505.782 460.918 507.035 460.898 L 507.035 464.129 C 504.169 464.092 502.768 465.592 502.829 468.629 L 502.829 474.429 L 499.848 474.429 L 499.848 461.197 Z " fill="rgb(133,135,139)"/><path d=" M 511.924 470.982 C 511.924 472.043 512.456 472.572 513.521 472.572 C 514.005 472.572 514.427 472.441 514.788 472.177 C 515.114 471.943 515.387 471.627 515.608 471.228 C 515.819 470.82 515.982 470.394 516.095 469.951 C 516.166 469.49 516.201 469.037 516.201 468.593 C 515.172 468.593 514.226 468.759 513.362 469.095 C 512.949 469.277 512.614 469.525 512.36 469.841 C 512.069 470.16 511.924 470.539 511.924 470.982 Z  M 516.201 472.898 L 516.149 472.898 C 515.964 473.322 515.621 473.73 515.12 474.119 C 514.848 474.291 514.523 474.429 514.146 474.539 C 513.768 474.646 513.32 474.714 512.801 474.742 C 511.704 474.714 510.803 474.398 510.1 473.795 C 509.378 473.162 509.02 472.322 509.02 471.275 C 509.036 470.181 509.335 469.32 509.915 468.687 C 510.469 468.082 511.15 467.648 511.958 467.386 C 512.775 467.125 513.57 466.957 514.343 466.884 C 515.134 466.812 515.753 466.787 516.201 466.804 L 516.201 465.5 C 516.201 464.812 516.091 464.238 515.872 463.775 C 515.626 463.322 515.136 463.087 514.399 463.07 C 513.609 463.087 513.079 463.314 512.808 463.748 C 512.535 464.173 512.407 464.627 512.426 465.107 L 509.524 465.107 C 509.524 462.375 511.149 460.972 514.399 460.898 C 517.517 460.918 519.067 462.289 519.049 465.011 L 519.049 474.429 L 516.201 474.429 L 516.201 472.898 Z " fill="rgb(133,135,139)"/><path d=" M 322.197 493.943 C 322.197 494.441 322.23 494.959 322.302 495.494 C 322.354 496.037 322.451 496.531 322.592 496.974 C 322.759 497.42 322.983 497.773 323.263 498.035 C 323.572 498.326 323.95 498.47 324.398 498.47 C 324.837 498.47 325.197 498.326 325.478 498.035 C 325.768 497.773 326.006 497.42 326.19 496.974 C 326.515 496.06 326.677 495.048 326.677 493.943 C 326.677 492.675 326.515 491.605 326.19 490.734 C 325.847 489.865 325.25 489.422 324.398 489.402 C 323.914 489.402 323.537 489.529 323.263 489.783 C 322.983 490.047 322.759 490.39 322.592 490.816 C 322.451 491.242 322.354 491.728 322.302 492.271 C 322.23 492.806 322.197 493.363 322.197 493.943 Z  M 326.677 498.726 L 326.612 498.726 C 326.471 499.132 326.112 499.572 325.533 500.048 C 324.945 500.543 324.24 500.814 323.416 500.859 C 321.741 500.812 320.584 500.117 319.944 498.767 C 319.312 497.429 319.006 495.818 319.023 493.937 C 319.023 491.947 319.383 490.304 320.102 489.009 C 320.786 487.699 321.89 487.033 323.416 487.015 C 323.898 487.015 324.328 487.07 324.705 487.177 C 325.064 487.322 325.363 487.5 325.599 487.707 C 326.099 488.132 326.436 488.529 326.612 488.9 L 326.677 488.9 L 326.677 481.369 L 329.661 481.369 L 329.661 500.547 L 326.677 500.547 L 326.677 498.726 Z " fill="rgb(133,135,139)"/><path d=" M 340.466 491.263 C 340.485 490.798 340.352 490.302 340.07 489.775 C 339.903 489.536 339.674 489.341 339.383 489.187 C 339.084 489.04 338.688 488.968 338.195 488.968 C 337.326 488.986 336.697 489.269 336.308 489.816 C 335.938 490.333 335.734 490.816 335.697 491.263 L 340.466 491.263 Z  M 342.972 500.329 C 341.927 500.681 340.73 500.859 339.38 500.859 C 335.109 500.794 332.955 498.251 332.92 493.23 C 332.903 491.349 333.332 489.843 334.209 488.71 C 335.095 487.599 336.498 487.033 338.419 487.015 C 341.664 487.105 343.286 488.888 343.286 492.365 L 343.286 493.109 L 335.687 493.109 C 335.687 493.572 335.775 494.111 335.95 494.728 C 336.046 495.027 336.157 495.335 336.28 495.654 C 336.421 495.943 336.584 496.247 336.769 496.566 C 337.148 497.163 337.64 497.658 338.247 498.048 C 338.881 498.474 339.638 498.687 340.519 498.687 C 341.542 498.652 342.36 498.484 342.972 498.185 L 342.972 500.329 Z " fill="rgb(133,135,139)"/><path d=" M 367.019 499.752 C 366.799 499.842 366.533 499.941 366.217 500.049 C 365.858 500.201 365.458 500.332 365.021 500.439 C 364.126 500.691 363.105 500.832 361.957 500.859 C 359.284 500.832 357.32 499.914 356.067 498.104 C 354.787 496.303 354.146 493.893 354.146 490.869 C 354.128 487.984 354.693 485.641 355.843 483.84 C 356.974 482.029 358.85 481.104 361.471 481.057 C 363.626 481.084 365.209 481.633 366.217 482.701 C 367.216 483.777 367.716 485.086 367.716 486.625 L 364.217 486.625 C 364.217 486.234 364.2 485.846 364.165 485.455 C 364.094 485.066 363.958 484.713 363.757 484.397 C 363.581 484.078 363.315 483.82 362.956 483.621 C 362.58 483.449 362.083 483.363 361.47 483.363 C 360.664 483.381 360.011 483.607 359.511 484.043 C 359.003 484.469 358.618 485.029 358.355 485.727 C 358.083 486.434 357.895 487.186 357.79 487.982 C 357.675 488.799 357.619 489.596 357.619 490.373 C 357.601 492.693 357.978 494.586 358.749 496.053 C 359.503 497.539 360.814 498.291 362.679 498.309 C 363.758 498.291 364.683 498.086 365.455 497.697 C 366.226 497.344 366.748 497.076 367.019 496.895 L 367.019 499.752 Z " fill="rgb(133,135,139)"/><path d=" M 372.643 493.943 C 372.643 494.548 372.678 495.132 372.748 495.693 C 372.801 496.244 372.907 496.75 373.066 497.211 C 373.25 497.654 373.515 498.005 373.859 498.267 C 374.185 498.548 374.608 498.687 375.126 498.687 C 375.664 498.687 376.106 498.548 376.45 498.267 C 376.775 498.005 377.022 497.654 377.189 497.211 C 377.366 496.75 377.489 496.244 377.56 495.693 C 377.595 495.132 377.613 494.548 377.613 493.943 C 377.63 492.642 377.49 491.531 377.189 490.609 C 377.022 490.166 376.775 489.814 376.45 489.55 C 376.106 489.308 375.664 489.185 375.126 489.185 C 374.608 489.185 374.185 489.308 373.859 489.55 C 373.515 489.814 373.25 490.166 373.066 490.609 C 372.765 491.531 372.624 492.642 372.643 493.943 Z  M 375.126 500.859 C 371.372 500.777 369.487 498.47 369.469 493.937 C 369.487 489.394 371.372 487.088 375.126 487.015 C 378.882 487.088 380.768 489.394 380.786 493.937 C 380.768 498.47 378.882 500.777 375.126 500.859 Z " fill="rgb(133,135,139)"/><path d=" M 383.934 487.314 L 386.923 487.314 L 386.923 489.349 L 386.976 489.349 C 387.084 489.123 387.22 488.871 387.383 488.589 C 387.554 488.335 387.781 488.087 388.06 487.843 C 388.332 487.58 388.663 487.376 389.052 487.232 C 389.441 487.087 389.908 487.015 390.451 487.015 C 391.283 487.015 391.993 487.218 392.581 487.626 C 393.178 488.07 393.577 488.744 393.776 489.648 L 393.843 489.648 C 394.042 489.095 394.45 488.521 395.065 487.923 C 395.671 487.335 396.503 487.033 397.562 487.015 C 398.567 487.015 399.417 487.355 400.115 488.033 C 400.784 488.738 401.126 489.851 401.146 491.371 L 401.146 500.546 L 398.16 500.546 L 398.16 492.976 C 398.16 491.662 398.072 490.802 397.896 490.394 C 397.692 490.041 397.312 489.873 396.756 489.89 C 396.302 489.89 395.904 490.037 395.56 490.326 C 395.227 490.642 394.945 491.056 394.712 491.562 C 394.258 492.595 394.032 493.677 394.032 494.81 L 394.032 500.546 L 391.048 500.546 L 391.048 492.976 C 391.048 491.662 390.96 490.802 390.785 490.394 C 390.58 490.041 390.201 489.873 389.644 489.89 C 389.19 489.89 388.791 490.037 388.449 490.326 C 388.106 490.642 387.824 491.056 387.601 491.562 C 387.146 492.595 386.92 493.677 386.92 494.81 L 386.92 500.546 L 383.934 500.546 L 383.934 487.314 Z " fill="rgb(133,135,139)"/><path d=" M 408.146 493.943 C 408.128 495.185 408.292 496.242 408.634 497.111 C 408.976 498 409.56 498.453 410.387 498.47 C 410.915 498.47 411.323 498.336 411.613 498.062 C 411.894 497.8 412.118 497.457 412.286 497.029 C 412.444 496.586 412.54 496.091 412.575 495.548 C 412.609 495.013 412.626 494.478 412.626 493.943 C 412.626 493.4 412.609 492.861 412.575 492.326 C 412.522 491.783 412.417 491.297 412.259 490.871 C 412.091 490.427 411.868 490.064 411.586 489.783 C 411.279 489.529 410.878 489.402 410.387 489.402 C 409.992 489.402 409.664 489.529 409.399 489.783 C 409.109 490.064 408.863 490.427 408.661 490.871 C 408.318 491.804 408.146 492.828 408.146 493.943 Z  M 405.164 487.314 L 408.146 487.314 L 408.146 489.146 L 408.212 489.146 C 408.388 488.72 408.765 488.269 409.343 487.789 C 409.896 487.291 410.576 487.033 411.382 487.015 C 413.075 487.05 414.241 487.734 414.88 489.064 C 415.511 490.404 415.819 492.027 415.801 493.937 C 415.801 495.9 415.458 497.529 414.775 498.822 C 414.056 500.134 412.925 500.812 411.382 500.859 C 410.935 500.859 410.532 500.781 410.172 500.629 C 409.83 500.521 409.523 500.363 409.251 500.156 C 408.751 499.734 408.406 499.339 408.212 498.97 L 408.146 498.97 L 408.146 506.49 L 405.164 506.49 L 405.164 487.314 Z " fill="rgb(133,135,139)"/><path d=" M 426.443 498.09 L 426.39 498.09 C 426.32 498.324 426.184 498.6 425.982 498.914 C 425.807 499.229 425.566 499.535 425.258 499.832 C 424.952 500.104 424.584 500.342 424.154 500.549 C 423.706 500.756 423.184 500.86 422.588 500.86 C 421.623 500.86 420.817 500.506 420.167 499.801 C 419.484 499.076 419.132 497.973 419.114 496.488 L 419.114 487.315 L 422.097 487.315 L 422.097 494.885 C 422.097 496.19 422.194 497.035 422.388 497.426 C 422.573 497.815 422.917 498 423.419 497.983 C 423.921 497.983 424.36 497.815 424.739 497.481 C 425.118 497.162 425.435 496.764 425.69 496.283 C 426.192 495.26 426.443 494.182 426.443 493.049 L 426.443 487.315 L 429.426 487.315 L 429.426 500.547 L 426.443 500.547 L 426.443 498.09 Z " fill="rgb(133,135,139)"/><path d=" M 441.136 500.629 C 440.329 500.781 439.51 500.859 438.677 500.859 C 437.854 500.859 437.184 500.754 436.667 500.547 C 436.142 500.365 435.74 500.108 435.458 499.774 C 435.205 499.42 435.025 499.022 434.92 498.578 C 434.807 498.152 434.749 497.695 434.749 497.207 L 434.749 489.457 L 432.249 489.457 L 432.249 487.315 L 434.749 487.315 L 434.749 484.18 L 437.733 482.32 L 437.733 487.315 L 441.531 487.315 L 441.531 489.457 L 437.733 489.457 L 437.733 495.715 C 437.714 496.529 437.829 497.213 438.075 497.766 C 438.207 498.045 438.406 498.258 438.669 498.404 C 438.942 498.594 439.302 498.688 439.751 498.688 C 440.243 498.688 440.705 498.611 441.136 498.457 L 441.136 500.629 Z " fill="rgb(133,135,139)"/><path d=" M 446.093 497.099 C 446.093 498.158 446.625 498.687 447.69 498.687 C 448.174 498.687 448.597 498.556 448.957 498.294 C 449.283 498.058 449.556 497.742 449.777 497.343 C 449.988 496.937 450.151 496.511 450.265 496.066 C 450.335 495.605 450.37 495.152 450.37 494.708 C 449.341 494.708 448.395 494.876 447.531 495.21 C 447.118 495.392 446.783 495.642 446.529 495.958 C 446.238 496.275 446.093 496.656 446.093 497.099 Z  M 450.37 499.013 L 450.318 499.013 C 450.133 499.439 449.79 499.845 449.289 500.234 C 449.017 500.406 448.692 500.546 448.315 500.654 C 447.937 500.763 447.489 500.831 446.97 500.859 C 445.872 500.831 444.972 500.515 444.269 499.91 C 443.548 499.277 443.189 498.437 443.189 497.39 C 443.205 496.298 443.504 495.435 444.084 494.802 C 444.638 494.197 445.319 493.765 446.126 493.501 C 446.944 493.24 447.739 493.074 448.511 493.001 C 449.303 492.929 449.922 492.902 450.37 492.919 L 450.37 491.617 C 450.37 490.927 450.261 490.353 450.041 489.892 C 449.796 489.439 449.305 489.203 448.568 489.185 C 447.779 489.203 447.248 489.429 446.976 489.865 C 446.704 490.29 446.576 490.744 446.595 491.222 L 443.693 491.222 C 443.693 488.49 445.318 487.087 448.568 487.015 C 451.686 487.033 453.236 488.404 453.218 491.126 L 453.218 500.546 L 450.37 500.546 L 450.37 499.013 Z " fill="rgb(133,135,139)"/><path d=" M 460.436 500.437 C 457.686 499.66 456.275 497.298 456.205 493.353 C 456.186 491.57 456.662 490.078 457.63 488.874 C 458.59 487.671 460.114 487.05 462.205 487.015 C 463.201 487.015 464.031 487.142 464.693 487.396 C 465.311 487.658 465.816 488.021 466.202 488.484 C 466.407 488.71 466.573 488.941 466.698 489.177 C 466.825 489.458 466.927 489.748 467.008 490.046 C 467.133 490.636 467.197 491.24 467.197 491.855 L 464.02 491.855 C 464.02 491.187 463.9 490.578 463.66 490.025 C 463.373 489.484 462.811 489.203 461.977 489.185 C 461.126 489.203 460.482 489.546 460.046 490.214 C 459.602 490.902 459.378 491.765 459.378 492.804 C 459.378 493.464 459.483 494.138 459.689 494.824 C 459.895 495.511 460.2 496.148 460.602 496.736 C 461.041 497.296 461.597 497.753 462.27 498.105 C 462.951 498.494 463.789 498.687 464.782 498.687 C 465.643 498.687 466.378 498.576 466.988 498.349 L 466.988 500.234 C 465.847 500.623 464.59 500.832 463.212 500.859 C 462.781 500.859 462.366 500.826 461.968 500.763 L 461.611 502.349 C 461.717 502.332 461.845 502.322 461.996 502.322 C 462.254 502.322 462.534 502.349 462.835 502.404 C 463.145 502.476 463.439 502.617 463.712 502.824 C 464.006 503.005 464.233 503.263 464.392 503.599 C 464.56 503.933 464.645 504.349 464.645 504.847 C 464.645 505.642 464.383 506.304 463.859 506.828 C 463.343 507.38 462.537 507.666 461.443 507.683 C 460.91 507.666 460.475 507.583 460.14 507.439 C 459.806 507.312 459.542 507.199 459.352 507.101 L 459.352 505.351 C 459.641 505.523 459.939 505.681 460.246 505.826 C 460.534 505.97 460.876 506.058 461.277 506.083 C 461.732 506.058 462.052 505.908 462.238 505.636 C 462.433 505.392 462.531 505.128 462.531 504.849 C 462.511 504.242 462.285 503.833 461.847 503.626 C 461.382 503.427 460.914 503.335 460.439 503.353 C 460.205 503.353 459.972 503.39 459.748 503.462 L 460.436 500.437 Z " fill="rgb(133,135,139)"/><path d=" M 471.798 497.099 C 471.798 498.158 472.329 498.687 473.395 498.687 C 473.878 498.687 474.302 498.556 474.663 498.294 C 474.988 498.058 475.261 497.742 475.482 497.343 C 475.693 496.937 475.856 496.511 475.97 496.066 C 476.04 495.605 476.075 495.152 476.075 494.708 C 475.046 494.708 474.1 494.876 473.236 495.21 C 472.823 495.392 472.488 495.642 472.234 495.958 C 471.943 496.275 471.798 496.656 471.798 497.099 Z  M 470.62 484.761 C 470.602 483.492 470.72 482.54 470.975 481.91 C 471.23 481.279 471.712 480.962 472.422 480.962 C 472.73 480.962 473.054 481.058 473.396 481.247 C 473.756 481.41 474.107 481.62 474.448 481.882 C 474.808 482.099 475.124 482.302 475.396 482.49 C 475.659 482.689 475.865 482.788 476.015 482.788 C 476.207 482.806 476.343 482.699 476.423 482.464 C 476.458 482.22 476.476 481.806 476.476 481.22 L 478.054 481.22 C 478.054 482.527 477.958 483.486 477.765 484.099 C 477.527 484.703 477.015 485.005 476.226 485.005 C 475.865 485.005 475.524 484.915 475.199 484.734 C 474.839 484.546 474.501 484.351 474.186 484.154 C 473.861 483.91 473.571 483.706 473.318 483.544 C 473.045 483.392 472.829 483.316 472.672 483.316 C 472.506 483.316 472.387 483.41 472.318 483.599 C 472.247 483.798 472.212 484.185 472.212 484.761 L 470.62 484.761 Z  M 476.075 499.013 L 476.023 499.013 C 475.838 499.439 475.495 499.845 474.995 500.234 C 474.722 500.406 474.396 500.546 474.02 500.654 C 473.642 500.763 473.193 500.831 472.675 500.859 C 471.577 500.831 470.677 500.515 469.974 499.91 C 469.253 499.277 468.894 498.437 468.894 497.39 C 468.91 496.298 469.209 495.435 469.789 494.802 C 470.343 494.197 471.024 493.765 471.832 493.501 C 472.649 493.24 473.444 493.074 474.217 493.001 C 475.008 492.929 475.626 492.902 476.075 492.919 L 476.075 491.617 C 476.075 490.927 475.966 490.353 475.745 489.892 C 475.501 489.439 475.01 489.203 474.273 489.185 C 473.484 489.203 472.954 489.429 472.682 489.865 C 472.409 490.29 472.281 490.744 472.3 491.222 L 469.398 491.222 C 469.398 488.49 471.023 487.087 474.273 487.015 C 477.391 487.033 478.941 488.404 478.923 491.126 L 478.923 500.546 L 476.075 500.546 L 476.075 499.013 Z " fill="rgb(133,135,139)"/><path d=" M 485.315 493.943 C 485.315 494.548 485.35 495.132 485.42 495.693 C 485.473 496.244 485.579 496.75 485.738 497.211 C 485.922 497.654 486.187 498.005 486.531 498.267 C 486.857 498.548 487.28 498.687 487.799 498.687 C 488.336 498.687 488.778 498.548 489.122 498.267 C 489.446 498.005 489.694 497.654 489.86 497.211 C 490.038 496.75 490.161 496.244 490.232 495.693 C 490.267 495.132 490.285 494.548 490.285 493.943 C 490.302 492.642 490.163 491.531 489.86 490.609 C 489.694 490.166 489.446 489.814 489.122 489.55 C 488.778 489.308 488.336 489.185 487.799 489.185 C 487.28 489.185 486.857 489.308 486.531 489.55 C 486.187 489.814 485.922 490.166 485.738 490.609 C 485.437 491.531 485.295 492.642 485.315 493.943 Z  M 487.799 500.859 C 484.044 500.777 482.159 498.47 482.141 493.937 C 482.159 489.394 484.044 487.088 487.799 487.015 C 491.554 487.088 493.44 489.394 493.458 493.937 C 493.44 498.47 491.554 500.777 487.799 500.859 Z " fill="rgb(133,135,139)"/><path d=" M 332.82 375.316 C 327.032 372.261 321.833 369.185 317.444 366.23 C 315.474 364.718 313.889 363.105 312.65 361.332 C 311.486 359.941 310.924 358.404 310.924 356.634 C 310.924 352.894 312.088 350.296 314.525 348.656 C 316.843 346.966 319.932 346.109 323.674 346.109 C 328.335 346.199 332.615 346.894 336.389 348.175 C 340.269 349.496 343.795 350.877 346.875 352.283 L 349.064 353.283 L 349.064 334.283 L 347.911 333.978 C 346.109 333.502 343.091 332.933 338.957 332.285 C 334.681 331.58 329.732 331.222 324.246 331.222 C 314.797 331.222 306.773 333.314 300.396 337.441 C 293.644 341.839 290.173 348.785 290.08 358.119 C 290.174 365.336 292.746 371.271 297.696 375.736 C 302.271 380.076 307.643 383.871 313.65 387.011 C 319.435 390.105 324.597 393.377 329.011 396.746 C 333.219 399.847 335.303 403.716 335.386 408.543 C 335.386 411.523 334.381 414.171 332.33 416.621 C 330.084 419.218 326.031 420.58 320.33 420.664 C 314.711 420.578 309.634 419.418 305.203 417.201 C 300.795 415.158 297.093 413.181 294.21 411.334 L 291.827 409.806 L 291.827 431.08 L 293.037 431.351 C 294.691 431.72 297.957 432.482 302.843 433.636 C 307.759 434.767 313.407 435.41 319.624 435.55 L 319.659 435.55 C 330.531 435.55 339.372 433.041 345.929 428.097 C 352.625 423.099 356.088 415.707 356.232 406.078 C 356.088 398.394 353.564 392.013 348.726 387.117 C 344.156 382.494 338.808 378.527 332.82 375.316 Z " fill="rgb(255,255,255)"/><path d=" M 415.074 411.621 C 413.949 413.631 412.437 415.205 410.624 416.273 C 408.63 417.338 406.411 418.051 403.988 418.398 C 401.435 418.844 398.82 419.07 396.211 419.07 L 391.269 419.07 L 391.269 387.947 L 396.211 387.947 C 402.72 387.947 407.898 389.168 411.553 391.549 C 414.933 393.898 416.619 397.932 416.702 403.851 C 416.702 407.078 416.154 409.689 415.074 411.621 Z  M 391.269 347.705 L 400.077 347.705 C 401.056 347.705 402.082 347.791 403.106 347.959 C 404.972 348.287 406.568 348.922 407.95 349.908 C 409.218 350.68 410.187 351.803 410.869 353.23 C 411.517 354.941 411.845 357.301 411.845 360.248 C 411.845 363.113 411.484 365.377 410.76 366.996 C 410.035 368.687 409.037 369.945 407.797 370.734 C 406.494 371.551 404.868 372.135 402.951 372.471 C 400.856 372.867 398.576 373.068 396.176 373.068 L 391.269 373.068 L 391.269 347.705 Z  M 428.445 384.928 C 426.281 382.904 423.884 381.375 421.272 380.365 C 420.396 380.057 419.529 379.791 418.674 379.562 C 420.736 378.392 422.872 376.808 425.072 374.812 C 426.958 372.961 428.497 370.592 429.654 367.748 C 430.749 364.939 431.304 361.459 431.304 357.402 C 431.304 352.207 430.357 347.889 428.474 344.549 C 426.506 341.178 424.007 338.629 421.102 337.004 C 418.155 335.189 415.006 334.019 411.722 333.529 C 408.518 333.057 405.529 332.818 402.84 332.818 L 372.088 332.818 L 372.088 433.955 L 402.92 433.955 C 406.445 433.955 410.179 433.621 414.043 432.957 C 417.874 432.234 421.48 430.914 424.728 429.049 C 428.22 427.146 431.038 424.176 433.101 420.219 C 435.046 416.504 436.079 411.486 436.174 405.277 C 436.174 400.232 435.47 396.057 434.077 392.853 C 432.591 389.508 430.679 386.826 428.445 384.928 Z " fill="rgb(255,255,255)"/><path d=" M 520.32 362.779 L 520.32 361.23 C 520.32 352.998 517.602 345.896 512.234 340.107 C 506.805 334.355 498.268 331.367 486.815 331.222 C 472.921 331.463 462.807 336.494 456.766 346.162 C 450.757 355.578 447.758 367.955 447.852 382.935 C 447.852 398.64 451.25 411.383 457.94 420.799 C 464.624 430.445 475.176 435.408 489.311 435.55 L 489.337 435.55 L 489.364 435.55 C 495.338 435.41 500.738 434.672 505.356 433.367 C 507.673 432.799 509.807 432.099 511.605 431.328 C 513.233 430.771 514.643 430.25 515.794 429.777 L 516.753 429.384 L 516.753 410.845 L 514.346 412.453 C 513.034 413.328 510.417 414.666 506.508 416.457 C 502.796 418.334 498.251 419.328 493.04 419.416 C 484.04 419.33 477.913 415.836 474.298 408.715 C 470.491 401.472 468.606 391.953 468.696 380.402 C 468.696 376.502 468.987 372.461 469.557 368.379 C 470.079 364.437 471.022 360.677 472.36 357.191 C 473.604 353.894 475.442 351.211 477.842 349.199 C 480.104 347.232 483.139 346.191 486.837 346.109 C 489.734 346.109 492.071 346.506 493.68 347.232 C 495.27 348.115 496.414 349.213 497.225 350.668 C 498.14 352.111 498.769 353.748 499.071 355.394 C 499.245 357.326 499.335 359.289 499.335 361.23 L 499.335 362.779 L 520.32 362.779 Z " fill="rgb(255,255,255)"/><path d=" M 339.132 87.596 L 281.153 87.596 C 281.153 87.596 281.143 142.038 281.153 169.754 C 284.884 115.505 339.132 87.596 339.132 87.596 Z " fill="rgb(255,194,52)"/><path d=" M 560.709 191.438 C 556.647 197.333 549.157 204.972 538.753 212.58 C 541.802 216.675 544.243 220.834 546.159 225.007 C 556.986 208.218 561.155 193.902 560.709 191.438 Z " fill="rgb(30,125,196)"/><path d=" M 365.148 240.053 C 350.62 231.613 341.577 224.772 333.728 215.841 C 329.856 217.72 320.316 223.047 316.089 224.334 C 319.054 220.641 325.892 213.964 329.659 211.151 C 289.863 164.196 332.75 115.599 353.523 97.238 C 298.721 119.809 242.812 231.463 344.113 281.015 C 422.694 311.068 482.997 297.273 514.905 267.731 C 511.13 259.358 506.39 251.937 500.874 245.4 C 465.721 261.089 422.838 265.425 365.148 240.053 Z " fill="rgb(30,125,196)"/></g></g></g></svg>